<svg xmlns="http://www.w3.org/2000/svg" width="26" height="26" viewBox="0 0 26 26">
  <g id="branding" transform="translate(-15.996 -16)">
    <path id="Path_4528" data-name="Path 4528" d="M53.327,34.506l.613-.613L49.046,29,61.179,16.867h7.187V18.6h-.941a1.3,1.3,0,1,0,0,.867h.941v4.587l-8.54,8.54.613.613,8.667-8.667a.433.433,0,0,0,.127-.306V22.067h1.3a1.733,1.733,0,0,0,0-3.467h-1.3V16.433A.433.433,0,0,0,68.8,16H61a.433.433,0,0,0-.306.127L48.127,28.694a.433.433,0,0,0,0,.613Zm12.44-15.473A.434.434,0,0,1,66.2,18.6v.867a.434.434,0,0,1-.433-.433Zm4.767.433a.867.867,0,1,1,0,1.733h-1.3V19.467Z" transform="translate(-30.271)" fill="#7389e6"/>
    <path id="Path_4529" data-name="Path 4529" d="M232.028,85.084a1.381,1.381,0,0,0,.884.9,1.344,1.344,0,0,0,.555,1.05,1.427,1.427,0,0,0,1.271.229,1.446,1.446,0,0,0,2.251,0,1.427,1.427,0,0,0,1.272-.229,1.344,1.344,0,0,0,.555-1.05,1.381,1.381,0,0,0,.884-.9,1.325,1.325,0,0,0-.18-1.184,1.325,1.325,0,0,0,.18-1.184,1.381,1.381,0,0,0-.884-.9,1.344,1.344,0,0,0-.555-1.05,1.427,1.427,0,0,0-1.272-.229,1.446,1.446,0,0,0-2.251,0,1.427,1.427,0,0,0-1.271.229,1.344,1.344,0,0,0-.555,1.05,1.381,1.381,0,0,0-.884.9,1.325,1.325,0,0,0,.18,1.184A1.325,1.325,0,0,0,232.028,85.084Zm1.036-1.545a.478.478,0,0,1-.209-.562.525.525,0,0,1,.539-.367.433.433,0,0,0,.418-.583.48.48,0,0,1,.174-.565.553.553,0,0,1,.68,0,.433.433,0,0,0,.673-.221.557.557,0,0,1,1.049,0,.433.433,0,0,0,.673.221.553.553,0,0,1,.68,0,.48.48,0,0,1,.174.565.433.433,0,0,0,.418.583.526.526,0,0,1,.539.367.478.478,0,0,1-.209.562.433.433,0,0,0,0,.723.478.478,0,0,1,.209.562.525.525,0,0,1-.539.367.433.433,0,0,0-.418.583.48.48,0,0,1-.174.565.553.553,0,0,1-.68,0,.433.433,0,0,0-.673.221.557.557,0,0,1-1.049,0,.433.433,0,0,0-.673-.221.553.553,0,0,1-.68,0,.48.48,0,0,1-.174-.565.433.433,0,0,0-.418-.583.525.525,0,0,1-.539-.367.478.478,0,0,1,.209-.562.433.433,0,0,0,0-.723Z" transform="translate(-204.268 -60.534)" fill="#7389e6"/>
    <rect id="Rectangle_454" data-name="Rectangle 454" width="3.677" height="0.867" transform="translate(20.023 29.127) rotate(-45)" fill="#7389e6"/>
    <rect id="Rectangle_455" data-name="Rectangle 455" width="3.677" height="0.867" transform="translate(21.323 30.427) rotate(-45)" fill="#7389e6"/>
    <rect id="Rectangle_456" data-name="Rectangle 456" width="3.677" height="0.867" transform="translate(22.623 31.727) rotate(-45)" fill="#7389e6"/>
    <rect id="Rectangle_457" data-name="Rectangle 457" width="3.677" height="0.867" transform="translate(23.923 33.027) rotate(-45)" fill="#7389e6"/>
    <rect id="Rectangle_458" data-name="Rectangle 458" width="1.838" height="0.867" transform="translate(26.523 33.027) rotate(-45)" fill="#7389e6"/>
    <rect id="Rectangle_459" data-name="Rectangle 459" width="0.867" height="1.494" transform="translate(25.223 24.973) rotate(-45)" fill="#7389e6"/>
    <rect id="Rectangle_460" data-name="Rectangle 460" width="0.867" height="3.83" transform="translate(26.848 26.598) rotate(-45)" fill="#7389e6"/>
    <path id="Path_4530" data-name="Path 4530" d="M96.329,19.021a2.54,2.54,0,0,1,1.851,1.851.433.433,0,0,0,.841,0,2.54,2.54,0,0,1,1.851-1.851.433.433,0,0,0,0-.841,2.54,2.54,0,0,1-1.851-1.851.433.433,0,0,0-.841,0,2.54,2.54,0,0,1-1.851,1.851.433.433,0,0,0,0,.841ZM98.6,17.527A3.4,3.4,0,0,0,99.674,18.6,3.4,3.4,0,0,0,98.6,19.674,3.4,3.4,0,0,0,97.527,18.6,3.4,3.4,0,0,0,98.6,17.527Z" transform="translate(-75.672 -0.001)" fill="#7389e6"/>
    <rect id="Rectangle_461" data-name="Rectangle 461" width="4.622" height="0.867" transform="translate(33.456 31.294) rotate(-45)" fill="#7389e6"/>
    <rect id="Rectangle_462" data-name="Rectangle 462" width="1.226" height="0.867" transform="translate(37.356 27.394) rotate(-45)" fill="#7389e6"/>
    <path id="Path_4531" data-name="Path 4531" d="M41.562,328.433h-3.9a.433.433,0,0,0-.433.433v.411a6.8,6.8,0,0,0-7.3-.4l-.759.427H25.529a2.166,2.166,0,0,0-1.788,3.389l-4.622-2.3a2.045,2.045,0,0,0-.889-.212h-.186a2.033,2.033,0,0,0-.925,3.851l5.317,2.659a3.919,3.919,0,0,0,1.744.412H41.562a.433.433,0,0,0,.433-.433v-7.8A.433.433,0,0,0,41.562,328.433Zm-18.738,7.48-5.317-2.659a1.166,1.166,0,0,1,.521-2.209h.2a1.174,1.174,0,0,1,.51.122l4.87,2.419a.434.434,0,0,0,.193.045h5.633a.433.433,0,1,0,0-.867h-3.9a1.3,1.3,0,1,1,0-2.6h3.756a.434.434,0,0,0,.212-.056l.858-.483a5.932,5.932,0,0,1,6.613.538l.261.208v5.858H24.181a3.049,3.049,0,0,1-1.357-.32Zm18.3.32H38.1V329.3h3.033Z" transform="translate(0 -295.1)" fill="#7389e6"/>
    <path id="Path_4532" data-name="Path 4532" d="M440.65,433.3a.65.65,0,1,0-.65-.65.65.65,0,0,0,.65.65Z" transform="translate(-401.038 -393.467)" fill="#7389e6"/>
    <rect id="Rectangle_463" data-name="Rectangle 463" width="0.867" height="4.903" transform="translate(24.356 26.706) rotate(-45)" fill="#7389e6"/>
  </g>
</svg>
