<svg xmlns="http://www.w3.org/2000/svg" width="32.75" height="27.837" viewBox="0 0 32.75 27.837">
  <g id="consulting" transform="translate(0 -0.5)">
    <path id="Path_4528" data-name="Path 4528" d="M27.837,5.958H20.2V5.412A4.918,4.918,0,0,0,15.283.5H4.912A4.918,4.918,0,0,0,0,5.412v6.55a4.918,4.918,0,0,0,4.912,4.913h.546v4.367a.546.546,0,0,0,.932.386l4.753-4.753h1.411v.546a4.918,4.918,0,0,0,4.912,4.913h3.049l5.844,5.844a.546.546,0,0,0,.932-.386V22.333h.546a4.918,4.918,0,0,0,4.912-4.913v-6.55a4.918,4.918,0,0,0-4.912-4.912ZM10.917,15.783a.546.546,0,0,0-.386.16L6.55,19.924V16.329A.546.546,0,0,0,6,15.783H4.912a3.825,3.825,0,0,1-3.821-3.821V5.413A3.825,3.825,0,0,1,4.912,1.592H15.283A3.825,3.825,0,0,1,19.1,5.413v.546H17.467a4.918,4.918,0,0,0-4.913,4.912v4.912Zm20.742,1.637a3.825,3.825,0,0,1-3.821,3.821H26.746a.546.546,0,0,0-.546.546v4.686L21.128,21.4a.546.546,0,0,0-.386-.16H17.467a3.825,3.825,0,0,1-3.821-3.821v-6.55A3.825,3.825,0,0,1,17.467,7.05H27.837a3.825,3.825,0,0,1,3.821,3.821Zm0,0" fill="#6994e6"/>
    <path id="Path_4529" data-name="Path 4529" d="M245.1,144.5H232.546a.546.546,0,1,0,0,1.092H245.1a.546.546,0,1,0,0-1.092Zm0,0" transform="translate(-216.171 -134.175)" fill="#6994e6"/>
    <path id="Path_4530" data-name="Path 4530" d="M245.1,192.5H232.546a.546.546,0,1,0,0,1.092H245.1a.546.546,0,1,0,0-1.092Zm0,0" transform="translate(-216.171 -178.9)" fill="#6994e6"/>
    <path id="Path_4531" data-name="Path 4531" d="M245.1,240.5H232.546a.546.546,0,1,0,0,1.092H245.1a.546.546,0,1,0,0-1.092Zm0,0" transform="translate(-216.171 -223.625)" fill="#6994e6"/>
    <path id="Path_4532" data-name="Path 4532" d="M40.546,65.592H52.008a.546.546,0,1,0,0-1.092H40.546a.546.546,0,1,0,0,1.092Zm0,0" transform="translate(-37.271 -59.633)" fill="#6994e6"/>
    <path id="Path_4533" data-name="Path 4533" d="M48.733,112.5H40.546a.546.546,0,1,0,0,1.092h8.187a.546.546,0,1,0,0-1.092Zm0,0" transform="translate(-37.271 -104.358)" fill="#6994e6"/>
    <path id="Path_4534" data-name="Path 4534" d="M48.188,160.5H40.546a.546.546,0,0,0,0,1.092h7.642a.546.546,0,0,0,0-1.092Zm0,0" transform="translate(-37.271 -149.083)" fill="#6994e6"/>
  </g>
</svg>
