<svg xmlns="http://www.w3.org/2000/svg" width="32.563" height="28.816" viewBox="0 0 32.563 28.816">
  <g id="design" transform="translate(0 -29.327)">
    <path id="Path_4528" data-name="Path 4528" d="M227.454,435.725a.479.479,0,0,1-.479-.479v-1.274a.331.331,0,0,0-.331-.331h-1.287a.331.331,0,0,0-.331.331v1.274a.479.479,0,0,1-.958,0v-1.274a1.291,1.291,0,0,1,1.289-1.289h1.287a1.291,1.291,0,0,1,1.289,1.289v1.274A.479.479,0,0,1,227.454,435.725Z" transform="translate(-209.751 -377.582)" fill="#629ae6"/>
    <g id="Group_1674" data-name="Group 1674" transform="translate(0 29.327)">
      <path id="Path_4529" data-name="Path 4529" d="M151.091,131.085a.479.479,0,1,0-.77.57l2.38,3.214a1.009,1.009,0,0,1-.044,1.226l-2.564,2.926h-7.219L140.31,136.1a1.009,1.009,0,0,1-.044-1.226l4.725-6.381v3.636a2.442,2.442,0,1,0,3.049.052v-3.6L149.092,130a.479.479,0,1,0,.77-.57l-2.056-2.776a1.617,1.617,0,0,0-2.647,0L139.5,134.3a1.972,1.972,0,0,0,.093,2.428l2.138,2.44a1.565,1.565,0,0,0-.9,1.417v2.286a1.566,1.566,0,0,0,1.1,1.492l.131,3.777a.479.479,0,0,0,.479.463h.017a.479.479,0,0,0,.462-.5l-.127-3.673h7.267l-.127,3.673a.479.479,0,0,0,.462.5h.017a.479.479,0,0,0,.479-.463l.132-3.8a1.566,1.566,0,0,0,1.033-1.47v-2.286a1.565,1.565,0,0,0-.905-1.417l2.138-2.44a1.972,1.972,0,0,0,.093-2.428Zm-4.608-4.165a.685.685,0,0,1,.553.3l.045.061v5.137a.479.479,0,0,0,.216.4,1.483,1.483,0,1,1-1.579-.031.479.479,0,0,0,.231-.41V127.2A.679.679,0,0,1,146.483,126.92Zm4.7,15.95a.605.605,0,0,1-.6.6h-8.2a.605.605,0,0,1-.6-.6v-2.286a.605.605,0,0,1,.6-.6h8.2a.605.605,0,0,1,.6.6Z" transform="translate(-130.234 -119.787)" fill="#629ae6"/>
      <path id="Path_4530" data-name="Path 4530" d="M69.906,134.639a9.573,9.573,0,0,1,1.233-4.322.479.479,0,0,0-.834-.473,10.533,10.533,0,0,0-1.358,4.79,1.912,1.912,0,1,0,.959,0Zm-.488,2.8a.953.953,0,1,1,.953-.953A.954.954,0,0,1,69.417,137.44Z" transform="translate(-63.193 -123.194)" fill="#629ae6"/>
      <path id="Path_4531" data-name="Path 4531" d="M31.549,29.327h-1.54a1.016,1.016,0,0,0-1.015,1.015v.291H18.066v-.291a1.016,1.016,0,0,0-1.015-1.015h-1.54A1.016,1.016,0,0,0,14.5,30.342v.291H3.569v-.291a1.016,1.016,0,0,0-1.015-1.015H1.015A1.016,1.016,0,0,0,0,30.342v1.54A1.016,1.016,0,0,0,1.015,32.9h1.54a1.016,1.016,0,0,0,1.015-1.015v-.291h8.319A10.556,10.556,0,0,0,8.371,34.21a.479.479,0,0,0,.719.633A9.569,9.569,0,0,1,14.5,31.758v.124A1.016,1.016,0,0,0,15.512,32.9h1.54a1.016,1.016,0,0,0,1.015-1.015v-.124a9.6,9.6,0,0,1,7.784,9.014,1.911,1.911,0,1,0,.959,0,10.572,10.572,0,0,0-6.134-9.176h8.319v.291A1.016,1.016,0,0,0,30.009,32.9h1.54a1.016,1.016,0,0,0,1.015-1.015v-1.54a1.016,1.016,0,0,0-1.015-1.015ZM2.611,31.882a.056.056,0,0,1-.056.056H1.015a.056.056,0,0,1-.056-.056v-1.54a.056.056,0,0,1,.056-.056h1.54a.056.056,0,0,1,.056.056ZM27.291,42.62a.953.953,0,1,1-.953-.953A.954.954,0,0,1,27.291,42.62ZM17.108,31.882a.056.056,0,0,1-.056.056h-1.54a.056.056,0,0,1-.056-.056v-1.54a.056.056,0,0,1,.056-.056h1.54a.056.056,0,0,1,.056.056Zm14.5,0a.056.056,0,0,1-.056.056h-1.54a.056.056,0,0,1-.056-.056v-1.54a.056.056,0,0,1,.056-.056h1.54a.056.056,0,0,1,.056.056Z" transform="translate(0 -29.327)" fill="#629ae6"/>
    </g>
  </g>
</svg>
