<svg xmlns="http://www.w3.org/2000/svg" width="127" height="61.736" viewBox="0 0 127 61.736">
  <path id="fujitsu-2" d="M35.782,43.2a5.377,5.377,0,1,1-10.753,0V24.655a4.156,4.156,0,0,1,1.112-3.149H18.911a4.191,4.191,0,0,1,1.3,3.152V42.089c.009,5.655,4.564,9.681,10.2,9.641,5.6.04,10.151-3.986,10.2-9.641V24.655A3.828,3.828,0,0,1,41.9,21.5H34.67a4.65,4.65,0,0,1,1.112,3.152ZM7.231,51.356A4.323,4.323,0,0,1,6.118,48.2V36.336h6.3A4.273,4.273,0,0,1,15.2,37.448l-.185-4.076h-8.9v-8.9h8.528a3.537,3.537,0,0,1,2.781,1.112l-.185-4.079H0a4.191,4.191,0,0,1,1.3,3.152V48.2A4.231,4.231,0,0,1,0,51.359H7.231ZM42.457,61.736c.34-.241,4.017-4.379,4.079-7.231V24.655a4.737,4.737,0,0,0-1.3-3.152h7.231a4.3,4.3,0,0,0-1.3,3.152V50.426C51.2,56.7,48.313,61.559,42.457,61.736ZM61.553,48.2a4.43,4.43,0,0,0,1.3,3.155H55.62a5.181,5.181,0,0,0,1.3-3.337V24.655a4.811,4.811,0,0,0-1.3-3.149h7.231a4.244,4.244,0,0,0-1.3,3.152Zm9.641-26.7h7.231M53.766,3.152A7.469,7.469,0,0,1,59.885,0a8.077,8.077,0,0,1,7.972,7.972,8.056,8.056,0,0,1-7.972,7.972,9.517,9.517,0,0,1-4.635-1.483,17.512,17.512,0,0,1-3.708-3.893A4,4,0,0,0,48.39,9.085a4.264,4.264,0,0,0-4.264,4.264,4.4,4.4,0,0,0,4.264,4.264,7.133,7.133,0,0,0,4.82-2.966v2.966a6.359,6.359,0,0,1-4.82,2.039,6.24,6.24,0,0,1-6.3-6.3,6.388,6.388,0,0,1,6.3-6.489,6.264,6.264,0,0,1,4.635,2.225c1.066,1.326,2.395,3.075,3.708,3.708a5.719,5.719,0,0,0,8.9-4.817,5.677,5.677,0,0,0-5.747-5.747c-2.732,0-4.873,1.554-6.489,4.824l.371-3.9Zm67.3,40.044a5.388,5.388,0,0,1-5.377,5.377,5.479,5.479,0,0,1-5.562-5.377V24.655a4.362,4.362,0,0,1,1.3-3.152H104.2a4.676,4.676,0,0,1,1.3,3.152V42.086c-.046,5.655,4.505,9.681,10.2,9.641,5.54.04,10.1-3.986,10.012-9.641V24.655A4.869,4.869,0,0,1,127,21.5h-7.231a4.214,4.214,0,0,1,1.3,3.152V43.2ZM64.334,25.771c1.443-1.638,2.889-1.375,4.079-1.3h4.079V48.019a4.64,4.64,0,0,1-1.3,3.337h7.231a4.942,4.942,0,0,1-1.3-3.155V24.473H81.02c1.239-.077,2.29-.207,2.966,1.3l1.3-4.264H65.632l-1.3,4.264m36.153,0V21.507c-2.4-.658-13.173-2.429-15.2,5.933a8.508,8.508,0,0,0,4.635,8.9c2.518,1.19,5.8,3.028,6.86,3.708,1.7,1.026,2.009,2.614,1.483,4.635-.507,2.237-5.958,7.095-12.978.927L86.768,50.8c4.357,1.7,11.384,1.044,14.647-2.6,3.17-3.584,2.645-8.9-.742-11.124-2.182-1.489-7.71-4.542-8.714-5.006-.837-.454-3.921-4-.556-7.231,3.316-3.183,8.059-1.3,9.085.927Z" fill="#d6d6d6"/>
</svg>
