<svg xmlns="http://www.w3.org/2000/svg" width="19.521" height="15.855" viewBox="0 0 19.521 15.855">
  <path id="Icon_awesome-twitter-selected" data-name="Icon awesome-twitter-selected" d="M17.515,7.332c.012.173.012.347.012.52A11.306,11.306,0,0,1,6.144,19.236,11.306,11.306,0,0,1,0,17.44a8.277,8.277,0,0,0,.966.05A8.013,8.013,0,0,0,5.933,15.78a4.008,4.008,0,0,1-3.741-2.775,5.045,5.045,0,0,0,.756.062A4.231,4.231,0,0,0,4,12.931,4,4,0,0,1,.793,9v-.05A4.029,4.029,0,0,0,2.6,9.463,4.007,4.007,0,0,1,1.363,4.112,11.372,11.372,0,0,0,9.612,8.3a4.517,4.517,0,0,1-.1-.917,4,4,0,0,1,6.924-2.738,7.877,7.877,0,0,0,2.539-.966,3.99,3.99,0,0,1-1.759,2.2,8.021,8.021,0,0,0,2.3-.619,8.6,8.6,0,0,1-2.007,2.069Z" transform="translate(0 -3.381)" fill="#fff"/>
</svg>
