<svg xmlns="http://www.w3.org/2000/svg" width="29.285" height="27.107" viewBox="0 0 29.285 27.107">
  <g id="implementation" transform="translate(0 -19.046)">
    <path id="Path_4528" data-name="Path 4528" d="M29.285,43.477V24.852a2.218,2.218,0,0,0-2.215-2.215h-4.15a.429.429,0,1,0,0,.858h4.15a1.359,1.359,0,0,1,1.357,1.357V41.516A2.665,2.665,0,0,0,26.61,40.8H2.807A1.951,1.951,0,0,1,.862,38.98a1.708,1.708,0,0,1,1.7-1.588H4.436a.429.429,0,0,0,.429-.429c0-.01,0-.019,0-.029s0-.019,0-.029V23.5H21.205a.429.429,0,0,0,0-.858H4.865V19.475a.429.429,0,0,0-.429-.429H3.6A3.608,3.608,0,0,0,0,22.65v9.741a.429.429,0,0,0,.858,0V22.65A2.75,2.75,0,0,1,3.6,19.9h.4V36.533H2.564a2.553,2.553,0,0,0-1.706.652v-2.98a.429.429,0,0,0-.858,0c0,1.921,0,1.589,0,4.892a2.567,2.567,0,0,0,2.564,2.564H22.791v3.663a.83.83,0,0,0,.829.829h2.99a2.678,2.678,0,0,0,2.675-2.675.005.005,0,0,0,0,0ZM26.61,45.295H23.649V41.661H26.61a1.819,1.819,0,0,1,1.817,1.817h0A1.819,1.819,0,0,1,26.61,45.295Z" fill="#817ae5"/>
    <path id="Path_4529" data-name="Path 4529" d="M189.887,143.469l-.4-.967.315-.8a.429.429,0,0,0-.1-.46l-.947-.947a.429.429,0,0,0-.46-.1l-.8.315-.967-.4-.346-.791a.429.429,0,0,0-.393-.257h-1.34a.429.429,0,0,0-.393.257l-.346.791-.967.4-.8-.315a.429.429,0,0,0-.46.1l-.947.947a.429.429,0,0,0-.1.46l.315.8-.4.967-.791.346a.429.429,0,0,0-.257.393v1.34a.429.429,0,0,0,.257.393l.791.346.4.967-.315.8a.429.429,0,0,0,.1.46l.947.947a.429.429,0,0,0,.46.1l.8-.315.967.4.346.791a.429.429,0,0,0,.393.257h1.34a.429.429,0,0,0,.393-.257l.346-.791.967-.4.8.315a.429.429,0,0,0,.46-.1l.947-.947a.429.429,0,0,0,.1-.46l-.315-.8.4-.967.791-.346a.429.429,0,0,0,.257-.393v-1.34a.429.429,0,0,0-.257-.393Zm.19,1.8-.692.3a.429.429,0,0,0-.224.229l-.533,1.286a.429.429,0,0,0,0,.321l.275.7-.55.55-.7-.275a.429.429,0,0,0-.321,0l-1.286.533a.429.429,0,0,0-.229.224l-.3.692h-.778l-.3-.692a.429.429,0,0,0-.229-.224l-1.286-.533a.428.428,0,0,0-.321,0l-.7.275-.55-.55.275-.7a.429.429,0,0,0,0-.321l-.533-1.286a.429.429,0,0,0-.224-.229l-.692-.3v-.778l.692-.3a.429.429,0,0,0,.224-.229l.533-1.286a.429.429,0,0,0,0-.321l-.275-.7.55-.55.7.275a.429.429,0,0,0,.321,0l1.286-.533a.428.428,0,0,0,.229-.224l.3-.692h.778l.3.692a.429.429,0,0,0,.229.224l1.286.533a.429.429,0,0,0,.321,0l.7-.275.55.55-.275.7a.429.429,0,0,0,0,.321l.533,1.286a.429.429,0,0,0,.224.229l.692.3Z" transform="translate(-169.045 -113.15)" fill="#817ae5"/>
    <path id="Path_4530" data-name="Path 4530" d="M236.512,194.429a1.835,1.835,0,0,1,1.7,1.146.429.429,0,0,0,.794-.324,2.7,2.7,0,1,0,0,2.04.429.429,0,0,0-.794-.324,1.841,1.841,0,1,1-1.7-2.536Z" transform="translate(-220.439 -164.542)" fill="#817ae5"/>
  </g>
</svg>
