<svg xmlns="http://www.w3.org/2000/svg" width="27.19" height="27.181" viewBox="0 0 27.19 27.181">
  <g id="integration" transform="translate(0 -0.08)">
    <g id="Group_1675" data-name="Group 1675" transform="translate(1.823 1.894)">
      <g id="Group_1674" data-name="Group 1674">
        <path id="Path_4535" data-name="Path 4535" d="M41.695,32.106a9.513,9.513,0,1,0,9.513,9.513A9.513,9.513,0,0,0,41.695,32.106Zm0,.906a8.6,8.6,0,0,1,7.029,3.656L47.591,37.8a1.788,1.788,0,0,0-.913-.258,1.812,1.812,0,0,0-1.812,1.812,1.788,1.788,0,0,0,.257.915l-2.966,2.966a1.757,1.757,0,0,0-1.829,0l-2.06-2.06a1.788,1.788,0,0,0,.257-.915,1.808,1.808,0,0,0-3.56-.453H33.284A8.619,8.619,0,0,1,41.695,33.012Zm5.889,6.342a.906.906,0,1,1-.906-.906A.906.906,0,0,1,47.584,39.354ZM42.148,44.79a.906.906,0,1,1-.906-.906A.906.906,0,0,1,42.148,44.79Zm-4.53-4.53a.906.906,0,1,1-.906-.906A.906.906,0,0,1,37.618,40.26Zm8.259,8.885a8.605,8.605,0,0,1-12.74-8.432h1.828a1.812,1.812,0,0,0,1.748,1.359,1.788,1.788,0,0,0,.915-.257l2.06,2.06a1.788,1.788,0,0,0-.257.915,1.812,1.812,0,1,0,3.624,0,1.788,1.788,0,0,0-.257-.915l2.966-2.966a1.788,1.788,0,0,0,.915.257,1.812,1.812,0,0,0,1.812-1.812,1.788,1.788,0,0,0-.257-.915l.988-.987A8.6,8.6,0,0,1,45.877,49.145Z" transform="translate(-32.182 -32.106)" fill="#bb3fe3"/>
      </g>
    </g>
    <g id="Group_1677" data-name="Group 1677" transform="translate(0 0.08)">
      <g id="Group_1676" data-name="Group 1676">
        <path id="Path_4536" data-name="Path 4536" d="M22.66,4.612a1.812,1.812,0,0,0,1.748-1.359H27.19V2.347H24.408a1.808,1.808,0,0,0-3.56.453,1.788,1.788,0,0,0,.257.915l-.8.8a11.325,11.325,0,1,0-2.828,16.4l1.367,1.367.641.641,3.647,3.647a2.375,2.375,0,1,0,3.359-3.359l-3.647-3.647-.641-.641L20.84,17.553a11.287,11.287,0,0,0,0-12.293l.906-.906A1.788,1.788,0,0,0,22.66,4.612Zm0-2.718a.906.906,0,1,1-.906.906A.906.906,0,0,1,22.66,1.894Zm3.194,21.954a1.469,1.469,0,1,1-2.054,2.1l-.024-.024L20.13,22.279,22.207,20.2Zm-4.287-4.287-2.077,2.077-1.254-1.254c.064-.049.124-.1.187-.153s.136-.111.2-.167c.1-.083.2-.168.293-.254l.145-.136q.279-.261.54-.54c.045-.048.091-.1.136-.145.087-.1.171-.194.254-.293q.085-.1.167-.2c.05-.063.1-.122.153-.186Zm-1.757-2.1c-.143.2-.29.395-.445.583-.045.055-.094.108-.14.162q-.208.242-.429.469-.1.1-.2.2-.227.222-.469.429c-.054.045-.107.095-.162.14-.188.155-.383.3-.583.445a10.435,10.435,0,1,1,2.425-2.425Z" transform="translate(0 -0.08)" fill="#bb3fe3"/>
      </g>
    </g>
  </g>
</svg>
