<svg id="link-icon" xmlns="http://www.w3.org/2000/svg" width="27.709" height="27.696" viewBox="0 0 27.709 27.696">
  <path id="Path_1647" data-name="Path 1647" d="M18.821,23.4l-.08.007a1.1,1.1,0,0,0-.639.3l-4.3,4.3A4.849,4.849,0,0,1,6.943,21.15l4.567-4.567a4.82,4.82,0,0,1,.759-.619,4.894,4.894,0,0,1,.985-.5,4.661,4.661,0,0,1,1-.246,4.72,4.72,0,0,1,.679-.047c.093,0,.186.007.306.013a4.835,4.835,0,0,1,3.116,1.4A4.774,4.774,0,0,1,19.493,18.4a1.048,1.048,0,0,0,1.285.672c.007,0,.013-.007.02-.007s.013,0,.013-.007a1.04,1.04,0,0,0,.7-1.272,6.033,6.033,0,0,0-1.638-2.73,7.009,7.009,0,0,0-3.835-1.951c-.126-.02-.253-.04-.379-.053a6.871,6.871,0,0,0-.739-.04c-.173,0-.346.007-.513.02a6.715,6.715,0,0,0-1.079.166c-.073.013-.14.033-.213.053a6.925,6.925,0,0,0-1.3.486,6.839,6.839,0,0,0-1.844,1.325L5.406,19.633a7.023,7.023,0,0,0-2.031,4.96,7,7,0,0,0,11.944,4.947l4.347-4.347A1.054,1.054,0,0,0,18.821,23.4Z" transform="translate(-3.375 -3.887)" fill="#fff"/>
  <path id="Path_1648" data-name="Path 1648" d="M29.563,5.419a7.016,7.016,0,0,0-9.9,0L15.422,9.66a1.07,1.07,0,0,0,.672,1.824,1.081,1.081,0,0,0,.846-.306l4.248-4.234A4.849,4.849,0,0,1,28.045,13.8l-4.567,4.567a4.82,4.82,0,0,1-.759.619,4.894,4.894,0,0,1-.985.5,4.662,4.662,0,0,1-1,.246,4.721,4.721,0,0,1-.679.047c-.093,0-.193-.007-.306-.013a4.784,4.784,0,0,1-4.208-3.1,1.064,1.064,0,0,0-1.272-.652,1.076,1.076,0,0,0-.752,1.365,6.081,6.081,0,0,0,1.578,2.5h0l.013.013a7.01,7.01,0,0,0,4.214,2,6.87,6.87,0,0,0,.739.04q.26,0,.519-.02a7.611,7.611,0,0,0,1.285-.213,6.925,6.925,0,0,0,1.3-.486,6.839,6.839,0,0,0,1.844-1.325l4.567-4.567a7.008,7.008,0,0,0-.013-9.907Z" transform="translate(-3.911 -3.375)" fill="#fff"/>
</svg>
