<svg xmlns="http://www.w3.org/2000/svg" xmlns:xlink="http://www.w3.org/1999/xlink" width="635" height="208.357" viewBox="0 0 635 208.357">
  <defs>
    <linearGradient id="linear-gradient" x1="0.122" y1="0.104" x2="1" y2="1" gradientUnits="objectBoundingBox">
      <stop offset="0" stop-color="#28d4e8"/>
      <stop offset="1" stop-color="#b644e3"/>
    </linearGradient>
  </defs>
  <path id="stats-right-abstract" d="M-1369.122,208.357c-9.726,0-19.734-.416-29.746-1.236a341.836,341.836,0,0,1-39.513-5.506,256.9,256.9,0,0,1-43.1-12.474,192.854,192.854,0,0,1-20.967-9.693A157.2,157.2,0,0,1-1522,167c-17.487-13.115-32.838-28.726-47.683-43.822-37.027-37.653-72-73.216-137.518-73.216A196.359,196.359,0,0,0-1727,51a270.542,270.542,0,0,1-27.227,1.308h-.02c-23.945,0-51.238-2.749-81.119-8.17-23.911-4.338-49.523-10.388-76.125-17.981-23.667-6.755-43.753-13.508-56.436-17.983C-1981.688,3.319-1989.918.033-1990,0h603.935A39.845,39.845,0,0,1-1355,38.594L-1355,208l-.025,0C-1355.966,208.062-1361.068,208.357-1369.122,208.357Z" transform="translate(1990)" fill="url(#linear-gradient)"/>
</svg>
