<svg xmlns="http://www.w3.org/2000/svg" width="148.747" height="40.069" viewBox="0 0 148.747 40.069">
  <g id="zagg" transform="translate(-0.001 0)">
    <path id="Path_4518" data-name="Path 4518" d="M97.8,55.906c-1.161,2.009-.211,3.654,2.109,3.654h13.28c2.321,0,3.27-1.644,2.111-3.654l-6.642-11.5c-1.159-2.01-3.058-2.01-4.219,0Z" transform="translate(-66.375 -29.264)" fill="#d6d6d6"/>
    <path id="Path_4519" data-name="Path 4519" d="M63.974,39.935h9.074L52.68,3.6A5.534,5.534,0,0,0,47.563.865H42.208L63.974,39.935ZM1.324,7.825H20.385L.869,33.547A4.043,4.043,0,0,0,.405,37.8a4.044,4.044,0,0,0,3.673,2.2H24.972l4.013-6.884H10.321L29.886,7.273a4.044,4.044,0,0,0,.462-4.256,4.042,4.042,0,0,0-3.672-2.2H1.324Zm88.188,18.3h10.06a9.011,9.011,0,0,1-2.417,4.562c-3,2.943-7.653,2.876-7.674,2.881l-.113,0A13.086,13.086,0,1,1,99.6,12.338l5.528-4.068a19.946,19.946,0,1,0-15.8,32.162h.145c1.3,0,7.724-.239,12.413-4.776,3.25-3.144,4.9-7.505,4.9-12.961V19.264H89.512v6.863Zm40.952,0h10.06a9.014,9.014,0,0,1-2.417,4.562c-3,2.943-7.654,2.876-7.674,2.881l-.113,0a13.086,13.086,0,1,1,10.236-21.23l5.528-4.068a19.946,19.946,0,1,0-15.8,32.162h.145c1.3,0,7.724-.239,12.413-4.776,3.25-3.144,4.9-7.505,4.9-12.961V19.264H130.464v6.863h0Z" transform="translate(0 -0.365)" fill="#d6d6d6"/>
    <g id="Group_1657" data-name="Group 1657" transform="translate(144.312 0)">
      <path id="Path_4520" data-name="Path 4520" d="M456.262,4.435a2.218,2.218,0,1,1,2.218-2.218,2.218,2.218,0,0,1-2.218,2.218Zm1.813-2.218a1.813,1.813,0,1,0-1.813,1.813,1.813,1.813,0,0,0,1.813-1.813Z" transform="translate(-454.044 0)" fill="#d6d6d6"/>
      <path id="Path_4521" data-name="Path 4521" d="M459.7,5.01l.515.758h-.543l-.45-.681h-.368v.681h-.466V3.654h.938c.505,0,.828.258.828.7A.656.656,0,0,1,459.7,5.01Zm-.39-.944h-.456v.62h.467c.236,0,.362-.126.362-.307C459.685,4.17,459.542,4.066,459.312,4.066Z" transform="translate(-457.009 -2.492)" fill="#d6d6d6"/>
    </g>
  </g>
</svg>
