<svg xmlns="http://www.w3.org/2000/svg" width="232.265" height="63.54" viewBox="0 0 232.265 63.54">
  <path id="asus" d="M218.885,3.938h-1.1v2.1h1.1a2.643,2.643,0,0,0,1.3-.232.86.86,0,0,0,.375-.789.912.912,0,0,0-.4-.83,2.469,2.469,0,0,0-1.283-.253ZM21.1,60.264V48.46h2.052V52.7a5.548,5.548,0,0,1,3.629-1.176,6.6,6.6,0,0,1,2.336.376,2.78,2.78,0,0,1,1.421,1.033,3.55,3.55,0,0,1,.428,1.916v5.42H28.908v-5.42a1.84,1.84,0,0,0-.666-1.58,3.121,3.121,0,0,0-1.888-.5,4.433,4.433,0,0,0-1.717.335,2.278,2.278,0,0,0-1.145.907,3.056,3.056,0,0,0-.342,1.578v4.677H21.1Zm17.473-1.3.3,1.281a10.8,10.8,0,0,1-1.55.129,4.751,4.751,0,0,1-1.737-.25,1.732,1.732,0,0,1-.864-.656,3.744,3.744,0,0,1-.253-1.71V52.841H32.957V51.714h1.507V49.6l2.044-.868v2.987h2.063v1.127H36.508v5a1.869,1.869,0,0,0,.105.8.756.756,0,0,0,.355.283,1.862,1.862,0,0,0,.7.1c.23,0,.53-.019.9-.058Zm6.491,0,.3,1.281a10.8,10.8,0,0,1-1.55.129,4.752,4.752,0,0,1-1.737-.25,1.736,1.736,0,0,1-.864-.656,3.744,3.744,0,0,1-.253-1.71V52.841H39.447V51.714h1.507V49.6L43,48.727v2.987h2.063v1.127H43v5a1.869,1.869,0,0,0,.105.8.757.757,0,0,0,.354.283,1.864,1.864,0,0,0,.7.1c.231,0,.531-.019.9-.058Zm2.009,4.573V51.714H48.94v1.11a4.371,4.371,0,0,1,1.5-.978,5.518,5.518,0,0,1,2.017-.327,6.325,6.325,0,0,1,2.737.564,3.98,3.98,0,0,1,1.791,1.591,4.487,4.487,0,0,1-.062,4.614,4.241,4.241,0,0,1-1.938,1.61,6.606,6.606,0,0,1-2.675.558,5.22,5.22,0,0,1-1.842-.305,4.211,4.211,0,0,1-1.339-.772v4.161H47.071Zm1.857-7.5a3,3,0,0,0,.946,2.44,3.472,3.472,0,0,0,2.293.789,3.521,3.521,0,0,0,2.344-.819,3.115,3.115,0,0,0,.977-2.531,3.045,3.045,0,0,0-.954-2.448,3.392,3.392,0,0,0-2.274-.814,3.47,3.47,0,0,0-2.325.866,3.134,3.134,0,0,0-1.008,2.517Zm11.7-2.674V51.714h2.339v1.649Zm0,6.9V58.612h2.339v1.652Zm4.38.2,4.847-12.2H71.5l-4.836,12.2Zm6.491,0,4.847-12.2h1.643l-4.836,12.2Zm10.267-.2-3.707-8.55h2.122l1.927,4.936.716,1.836c.032-.094.242-.682.627-1.764l1.927-5.008h2.11l1.815,4.958.607,1.636.692-1.652,2.075-4.941h2l-3.789,8.55H88.761l-1.927-5.12-.471-1.46-2.449,6.579H81.77Zm16.87,0-3.707-8.55h2.122l1.927,4.936.716,1.836c.031-.094.242-.682.627-1.764l1.927-5.008h2.11l1.815,4.958.607,1.636.693-1.652,2.075-4.941h2l-3.789,8.55h-2.129l-1.927-5.12-.471-1.46-2.449,6.579H98.64Zm16.869,0-3.707-8.55h2.122l1.927,4.936.716,1.836c.031-.094.242-.682.626-1.764l1.928-5.008h2.11l1.815,4.958.607,1.636.692-1.652,2.075-4.941h2l-3.789,8.55H122.5l-1.927-5.12-.471-1.46-2.449,6.579h-2.145Zm13.927,0V58.612h2.34v1.652Zm13.814-1.056a8.051,8.051,0,0,1-4.462,1.248,5.686,5.686,0,0,1-3.068-.687,2.042,2.042,0,0,1-1.071-1.759,1.809,1.809,0,0,1,.405-1.149,2.9,2.9,0,0,1,1.059-.832,6.223,6.223,0,0,1,1.479-.476c.4-.074,1.008-.149,1.822-.217a25.583,25.583,0,0,0,3.664-.5c.008-.2.011-.324.011-.376a1.346,1.346,0,0,0-.585-1.248,4.444,4.444,0,0,0-2.336-.492,4.864,4.864,0,0,0-2.141.357,2.2,2.2,0,0,0-1.021,1.269L135,54.152a3.136,3.136,0,0,1,.9-1.468,4.264,4.264,0,0,1,1.815-.863,11.191,11.191,0,0,1,2.748-.3,10.128,10.128,0,0,1,2.519.258,3.7,3.7,0,0,1,1.428.649,2.084,2.084,0,0,1,.639.987,5.914,5.914,0,0,1,.1,1.336v1.931a14.289,14.289,0,0,0,.132,2.556,2.673,2.673,0,0,0,.518,1.028h-2.145a2.429,2.429,0,0,1-.408-1.055Zm-.171-3.237a20.319,20.319,0,0,1-3.353.55,10.424,10.424,0,0,0-1.791.288,1.755,1.755,0,0,0-.81.473.992.992,0,0,0-.288.688,1.132,1.132,0,0,0,.623.967,3.5,3.5,0,0,0,1.818.385,5.68,5.68,0,0,0,2.11-.366,2.861,2.861,0,0,0,1.359-1,2.6,2.6,0,0,0,.331-1.449v-.534h0Zm4.438,1.74,2.029-.226a1.908,1.908,0,0,0,.954,1.322,4.329,4.329,0,0,0,2.184.459,4.24,4.24,0,0,0,2.1-.407,1.153,1.153,0,0,0,.685-.954.865.865,0,0,0-.608-.775,11.517,11.517,0,0,0-2.1-.489,24.948,24.948,0,0,1-3.13-.7,2.957,2.957,0,0,1-1.324-.813,1.682,1.682,0,0,1-.077-2.2,2.827,2.827,0,0,1,1.008-.811,5.247,5.247,0,0,1,1.3-.423,8.639,8.639,0,0,1,1.776-.174,9.748,9.748,0,0,1,2.5.291,3.628,3.628,0,0,1,1.592.783,2.62,2.62,0,0,1,.705,1.325l-2.005.195a1.523,1.523,0,0,0-.795-1.03,3.8,3.8,0,0,0-1.853-.371,4.494,4.494,0,0,0-2.017.33c-.4.22-.607.479-.607.772a.672.672,0,0,0,.254.508,1.944,1.944,0,0,0,.787.388c.206.052.81.176,1.814.368q2.177.412,3.037.674a3.122,3.122,0,0,1,1.355.761,1.7,1.7,0,0,1,.49,1.239,1.99,1.99,0,0,1-.6,1.366,3.917,3.917,0,0,1-1.729.989,8.6,8.6,0,0,1-2.553.349,7.518,7.518,0,0,1-3.6-.692,3.124,3.124,0,0,1-1.578-2.052Zm20.441,2.553V59.008a5.131,5.131,0,0,1-3.847,1.448,6.705,6.705,0,0,1-2-.289,3.415,3.415,0,0,1-1.378-.728,2.363,2.363,0,0,1-.635-1.075,5.381,5.381,0,0,1-.124-1.355v-5.3h2.052v4.741a6.169,6.169,0,0,0,.124,1.531,1.609,1.609,0,0,0,.821.9,3.366,3.366,0,0,0,1.554.324,4.511,4.511,0,0,0,1.733-.332,2.252,2.252,0,0,0,1.145-.91,3.342,3.342,0,0,0,.339-1.671V51.714h2.053v8.55h-1.834Zm4.232-2.553,2.028-.226a1.91,1.91,0,0,0,.954,1.322,4.33,4.33,0,0,0,2.184.459,4.24,4.24,0,0,0,2.1-.407,1.154,1.154,0,0,0,.686-.954.866.866,0,0,0-.608-.775,11.535,11.535,0,0,0-2.1-.489,24.986,24.986,0,0,1-3.13-.7,2.955,2.955,0,0,1-1.324-.813,1.682,1.682,0,0,1-.078-2.2,2.827,2.827,0,0,1,1.008-.811,5.258,5.258,0,0,1,1.3-.423,8.639,8.639,0,0,1,1.776-.174,9.752,9.752,0,0,1,2.5.291,3.628,3.628,0,0,1,1.592.783,2.62,2.62,0,0,1,.705,1.325l-2.005.195a1.523,1.523,0,0,0-.795-1.03,3.8,3.8,0,0,0-1.853-.371,4.494,4.494,0,0,0-2.017.33c-.4.22-.607.479-.607.772a.673.673,0,0,0,.253.508,1.947,1.947,0,0,0,.787.388c.206.052.81.176,1.814.368q2.177.412,3.037.674a3.119,3.119,0,0,1,1.355.761,1.7,1.7,0,0,1,.49,1.239,1.991,1.991,0,0,1-.6,1.366,3.915,3.915,0,0,1-1.729.989,8.6,8.6,0,0,1-2.553.349,7.515,7.515,0,0,1-3.6-.692,3.125,3.125,0,0,1-1.578-2.052Zm13.082,2.553V58.612h2.34v1.652Zm13.813-3.133,2.017.187a3.512,3.512,0,0,1-1.693,2.305,6.3,6.3,0,0,1-3.348.833,6.437,6.437,0,0,1-3.995-1.146,3.881,3.881,0,0,1-1.515-3.289A4.483,4.483,0,0,1,191.2,53.6a3.94,3.94,0,0,1,1.981-1.559,7.875,7.875,0,0,1,2.889-.519,6.529,6.529,0,0,1,3.227.707,3.208,3.208,0,0,1,1.612,2l-2,.217a2.3,2.3,0,0,0-1.008-1.3,3.36,3.36,0,0,0-1.752-.434,3.877,3.877,0,0,0-2.524.786,3,3,0,0,0-.969,2.481,3.085,3.085,0,0,0,.938,2.507,3.687,3.687,0,0,0,2.441.78,3.64,3.64,0,0,0,2.017-.525,2.36,2.36,0,0,0,1.027-1.61Zm3.01-1.143a3.832,3.832,0,0,1,1.872-3.518,7.2,7.2,0,0,1,3.808-.951,6.748,6.748,0,0,1,4.085,1.157,3.723,3.723,0,0,1,1.584,3.191,4.277,4.277,0,0,1-.7,2.6,4.5,4.5,0,0,1-2.04,1.471,7.994,7.994,0,0,1-2.929.522,6.775,6.775,0,0,1-4.111-1.152,3.857,3.857,0,0,1-1.569-3.317Zm2.11,0a2.963,2.963,0,0,0,1.017,2.459,4.372,4.372,0,0,0,5.1,0,3.036,3.036,0,0,0,1.012-2.5,2.893,2.893,0,0,0-1.02-2.4,4.386,4.386,0,0,0-5.092,0A2.951,2.951,0,0,0,204.205,55.988Zm11.649,4.276v-8.55h1.834v1.2a4.055,4.055,0,0,1,1.518-1.009,5.716,5.716,0,0,1,2.156-.385,5.293,5.293,0,0,1,2.2.4,2.4,2.4,0,0,1,1.214,1.1,4.965,4.965,0,0,1,3.742-1.5,4.656,4.656,0,0,1,2.772.707,2.5,2.5,0,0,1,.97,2.168v5.871h-2.04V54.878a2.885,2.885,0,0,0-.2-1.253,1.468,1.468,0,0,0-.724-.616,3.056,3.056,0,0,0-1.234-.233,3.568,3.568,0,0,0-2.122.6A2.194,2.194,0,0,0,225.1,55.3v4.968h-2.052V54.71a1.924,1.924,0,0,0-.5-1.451,2.314,2.314,0,0,0-1.643-.483,3.909,3.909,0,0,0-1.6.324,2.108,2.108,0,0,0-1.067.94,3.865,3.865,0,0,0-.332,1.789v4.436h-2.051Zm-12.4-41.925c13,3.838,12.746,25.48-4.746,25.435l-40.083-.1.04-11.751,40.9.267c2.955.019,2.618-4.464,0-4.723-10.935-1.087-19.278-1.53-30.214-2.618a11.9,11.9,0,0,1-10.218-9.269l44.327,2.763ZM107.022,0h11.743V11.4H107.022Zm11.743,13.061V28.507c0,2.142,1.277,3.9,2.84,3.9h21.725c1.563,0,2.84-1.756,2.84-3.9V14.769l11.634.725V32.272c0,5.5-5.4,11.5-11.181,11.5H118.2c-5.786,0-11.18-5.669-11.18-11.175V12.329l11.743.732ZM146.171,11.4V0h11.634V11.4H146.171ZM14.728,43.5l19.847-30.12L28.749,12.9l-8.077-.675L0,43.5ZM35.885,11.4H52.67L52.735,0,33.1.008a7.616,7.616,0,0,0-6.808,3.71L21.218,11.4H35.885Zm4.6,2.482v29.9h12L52.65,14.9l-3.294-.275-8.873-.742Zm65.346,11.567c3.348,7.683-.433,18.36-12.723,18.329l-40.083-.1.039-11.751,40.9.267c2.955.019,2.618-4.464,0-4.723-10.935-1.087-19.278-1.53-30.214-2.618A11.906,11.906,0,0,1,53.41,14.96l43.773,3.66c.065.005.13.011.195.018.039,0,.079.009.119.013l.115.014.023,0,.123.017.024,0,.15.024h.011l.13.023h.009l.143.028.063.012.021,0,.179.04.01,0c.056.013.111.026.166.041h0l.083.021q.161.043.319.091l.077.024.1.032a8.371,8.371,0,0,1,1.386.6h0q.2.111.4.231l.093.058.031.019.069.045q.218.14.426.293c.076.056.152.113.227.171l.067.052q.258.2.5.424l.009.008.129.118a.078.078,0,0,0,.014.012l.113.107.01.01q.209.2.409.413.142.149.279.3l2.418,3.545ZM104.2,22.866q.073.1.145.2l0,.006c.067.092.133.184.2.278l-.347-.48Zm1.176,1.774c.057.1.114.194.171.293l.008.014.014.025c.089.157.177.315.264.474l-.457-.805ZM63.65,0h41.492V11.4H53.327V9.858C53.327,6.5,59.37,0,63.65,0ZM169.256,0h41.493V11.4H158.933V9.858C158.933,6.5,164.977,0,169.256,0Zm49.795,3.34a3.36,3.36,0,0,1,1.829.4,1.365,1.365,0,0,1,.592,1.223,1.49,1.49,0,0,1-.374,1.033,1.6,1.6,0,0,1-1.007.507L221.4,9.2H220.39l-1.234-2.576h-1.368V9.2h-.882V3.341h2.145Zm4.381,3.033a4.631,4.631,0,0,0-.334-1.754,4.331,4.331,0,0,0-.957-1.455,4.6,4.6,0,0,0-4.955-1,4.464,4.464,0,0,0-1.448.971,4.836,4.836,0,0,0-1.009,1.5,4.422,4.422,0,0,0-.008,3.437,4.61,4.61,0,0,0,.99,1.469,4.546,4.546,0,0,0,1.472.988,4.377,4.377,0,0,0,1.716.344,4.529,4.529,0,0,0,1.739-.346,4.732,4.732,0,0,0,1.5-1,4.188,4.188,0,0,0,.962-1.417,4.5,4.5,0,0,0,.329-1.737ZM218.9,1.265a5.183,5.183,0,0,1,1.982.382,5.094,5.094,0,0,1,2.727,2.747,5.107,5.107,0,0,1,.379,1.96,5.091,5.091,0,0,1-.372,1.953,4.745,4.745,0,0,1-1.092,1.616,5.233,5.233,0,0,1-1.68,1.128,4.988,4.988,0,0,1-5.526-1.113,5.021,5.021,0,0,1-1.1-5.522,5.225,5.225,0,0,1,1.129-1.685,4.8,4.8,0,0,1,1.609-1.09,5.077,5.077,0,0,1,1.946-.375Z" fill="#d6d6d6" fill-rule="evenodd"/>
</svg>
