<svg xmlns="http://www.w3.org/2000/svg" xmlns:xlink="http://www.w3.org/1999/xlink" width="394.293" height="46.973" viewBox="0 0 394.293 46.973">
  <defs>
    <linearGradient id="linear-gradient" x1="0.5" x2="0.5" y2="1" gradientUnits="objectBoundingBox">
      <stop offset="0" stop-color="#28d4e8"/>
      <stop offset="1" stop-color="#b644e3"/>
    </linearGradient>
  </defs>
  <g id="icigai-logo" transform="translate(-170.31 -901.157)">
    <g id="Group_1515" data-name="Group 1515" transform="translate(170.31 902.76)">
      <g id="Group_1514" data-name="Group 1514" transform="translate(0 0)">
        <path id="Path_4378" data-name="Path 4378" d="M170.959,907.905h7.94a.6.6,0,0,1,.556.34v23.79q0,.37.062.989a.608.608,0,0,0-.062.278l.062.494q-.062.371-.062.433l.062.34-.062.495q0,.062.062.433c-.042.247-.062.391-.062.432s.02.186.062.432q-.062.371-.062.4a4.455,4.455,0,0,1,.062.649H170.31v-28.95Q170.31,907.9,170.959,907.905Zm-.649,30h9.207v.432H170.31Zm0,.865h9.207v.432H170.31Zm0,.834h9.207v.433H170.31Zm0,.865h9.207v.432H170.31Zm0,.927h9.207v.4H170.31Zm0,.834h9.207v.433H170.31Zm0,.865h9.207v.433H170.31Zm0,.927h9.207v.4H170.31Zm0,.835h9.207v.432H170.31Zm0,.865h9.207v.432H170.31Zm0,.834h9.207v.433H170.31Zm0,.927h9.207v.432H170.31Zm0,.865h9.207v.4H170.31Zm0,.834h9.207v.433H170.31Zm0,.865h9.207v.433H170.31Zm0,.927h9.207v.4H170.31Zm0,.835h9.207v.432H170.31Z" transform="translate(-170.31 -907.905)" fill="url(#linear-gradient)"/>
        <path id="Path_4379" data-name="Path 4379" d="M786.134,907.905h7.94a.6.6,0,0,1,.556.34v23.79q0,.37.062.989a.605.605,0,0,0-.062.278l.062.494c-.042.247-.062.391-.062.433l.062.34-.062.495c0,.041.02.185.062.433-.042.247-.062.391-.062.432s.02.186.062.432c-.042.248-.062.382-.062.4a4.492,4.492,0,0,1,.062.649h-9.207v-28.95Q785.485,907.9,786.134,907.905Zm-.649,30h9.207v.432h-9.207Zm0,.865h9.207v.432h-9.207Zm0,.834h9.207v.433h-9.207Zm0,.865h9.207v.432h-9.207Zm0,.927h9.207v.4h-9.207Zm0,.834h9.207v.433h-9.207Zm0,.865h9.207v.433h-9.207Zm0,.927h9.207v.4h-9.207Zm0,.835h9.207v.432h-9.207Zm0,.865h9.207v.432h-9.207Zm0,.834h9.207v.433h-9.207Zm0,.927h9.207v.432h-9.207Zm0,.865h9.207v.4h-9.207Zm0,.834h9.207v.433h-9.207Zm0,.865h9.207v.433h-9.207Zm0,.927h9.207v.4h-9.207Zm0,.835h9.207v.432h-9.207Z" transform="translate(-639.31 -907.905)" fill="url(#linear-gradient)"/>
      </g>
    </g>
    <g id="Group_1516" data-name="Group 1516" transform="translate(459.266 902.76)">
      <path id="Path_4380" data-name="Path 4380" d="M1386.376,952.782h10.7l12.556-24.415,12.091,24.415h10.929L1409.512,907.9Z" transform="translate(-1386.376 -907.905)" fill="url(#linear-gradient)"/>
      <line id="Line_6" data-name="Line 6" x2="18.796" transform="translate(14.3 22.012)" fill="#f1f2f2"/>
      <line id="Line_7" data-name="Line 7" x2="18.796" transform="translate(14.3 23.407)" fill="#f1f2f2"/>
      <line id="Line_8" data-name="Line 8" x2="18.796" transform="translate(14.3 24.802)" fill="#f1f2f2"/>
      <line id="Line_9" data-name="Line 9" x2="18.796" transform="translate(14.3 26.198)" fill="#f1f2f2"/>
      <line id="Line_10" data-name="Line 10" x2="18.796" transform="translate(14.3 27.593)" fill="#f1f2f2"/>
      <line id="Line_11" data-name="Line 11" x2="18.796" transform="translate(14.3 28.988)" fill="#f1f2f2"/>
      <line id="Line_12" data-name="Line 12" x2="18.796" transform="translate(14.3 30.383)" fill="#f1f2f2"/>
      <line id="Line_13" data-name="Line 13" x2="18.796" transform="translate(14.3 31.778)" fill="#f1f2f2"/>
      <line id="Line_14" data-name="Line 14" x2="18.796" transform="translate(14.3 33.173)" fill="#f1f2f2"/>
      <line id="Line_15" data-name="Line 15" x2="18.796" transform="translate(14.3 34.568)" fill="#f1f2f2"/>
      <line id="Line_16" data-name="Line 16" x2="18.796" transform="translate(14.3 35.964)" fill="#f1f2f2"/>
      <line id="Line_17" data-name="Line 17" x2="18.796" transform="translate(14.3 37.359)" fill="#f1f2f2"/>
    </g>
    <g id="Group_1518" data-name="Group 1518" transform="translate(226.87 901.157)">
      <g id="Group_1517" data-name="Group 1517" transform="translate(0 0)">
        <path id="Path_4381" data-name="Path 4381" d="M448.749,908.357l-6.439,6.178a14.518,14.518,0,0,0-9.621-4.436c-.285-.018-.571-.024-.862-.024-.208,0-.41.006-.613.012-.291.012-.577.036-.862.065-.208.018-.41.042-.612.072-.292.041-.577.089-.862.154a5.44,5.44,0,0,0-.618.143c-.291.065-.577.148-.856.238-.208.065-.416.137-.618.214-.292.107-.583.226-.862.351-.208.089-.41.19-.612.3-.291.137-.583.291-.862.457-.208.125-.41.25-.613.387-.048.029-.1.059-.149.095-.244.167-.482.333-.713.518-.214.16-.416.327-.618.5-.3.256-.583.523-.862.8-.208.208-.41.428-.613.654a12.824,12.824,0,0,0-.862,1.088c-.214.3-.422.6-.612.916a13.7,13.7,0,0,0-.862,1.629c-.048.1-.1.2-.137.309a14.562,14.562,0,0,0,1,13.283c.107.178.22.357.339.529.089.131.178.262.273.393.273.369.559.725.862,1.07.2.226.4.446.613.654.273.28.565.547.862.8.2.178.41.345.618.505.279.214.571.422.862.618.2.131.4.256.613.375.279.166.571.327.862.47.2.1.4.2.612.285.077.041.161.071.238.107q.312.134.624.25c.2.071.41.143.618.208.279.089.565.172.856.244.2.054.41.1.618.143.285.059.571.107.862.148.2.03.4.053.612.071.285.036.571.054.862.066.2.006.41.012.613.012v8.919c-.2,0-.41,0-.613-.012-.291,0-.577-.018-.862-.036-.208-.012-.41-.024-.612-.048-.292-.018-.577-.053-.862-.089-.208-.024-.416-.053-.618-.083-.285-.042-.571-.095-.856-.149-.208-.036-.41-.083-.618-.131-.292-.059-.577-.125-.862-.2-.208-.053-.41-.107-.612-.172-.291-.077-.577-.166-.862-.268-.208-.065-.41-.131-.613-.208-.291-.1-.577-.214-.862-.333-.208-.083-.416-.166-.618-.262-.291-.125-.577-.262-.862-.4-.2-.1-.41-.2-.613-.309-.291-.155-.577-.315-.862-.482-.208-.119-.41-.244-.612-.363-.238-.155-.476-.309-.714-.47-.048-.036-.1-.065-.149-.107a23.486,23.486,0,1,1,30.206-35.652Z" transform="translate(-408.34 -901.157)" fill="url(#linear-gradient)"/>
      </g>
      <rect id="Rectangle_381" data-name="Rectangle 381" width="0.861" height="41.241" transform="translate(23.489 5.733)" fill="url(#linear-gradient)"/>
      <path id="Path_4382" data-name="Path 4382" d="M501.84,925.28v41.229c-.291,0-.577-.018-.862-.036V925.28Z" transform="translate(-478.966 -919.548)" fill="url(#linear-gradient)"/>
      <path id="Path_4383" data-name="Path 4383" d="M495.634,925.28v41.146c-.292-.018-.577-.053-.862-.089V925.28Z" transform="translate(-474.234 -919.548)" fill="url(#linear-gradient)"/>
      <path id="Path_4384" data-name="Path 4384" d="M489.422,925.28v40.974c-.285-.042-.571-.1-.856-.149V925.28Z" transform="translate(-469.503 -919.548)" fill="url(#linear-gradient)"/>
      <path id="Path_4385" data-name="Path 4385" d="M483.2,925.28v40.694c-.292-.059-.577-.125-.862-.2V925.28Z" transform="translate(-464.753 -919.548)" fill="url(#linear-gradient)"/>
      <path id="Path_4386" data-name="Path 4386" d="M476.992,925.28V965.6c-.291-.077-.577-.166-.862-.268V925.28Z" transform="translate(-460.022 -919.548)" fill="url(#linear-gradient)"/>
      <path id="Path_4387" data-name="Path 4387" d="M470.786,925.28v39.844c-.291-.1-.577-.214-.862-.333V925.28Z" transform="translate(-455.291 -919.548)" fill="url(#linear-gradient)"/>
      <path id="Path_4388" data-name="Path 4388" d="M464.555,925.28v39.249c-.291-.125-.577-.262-.862-.4V925.28Z" transform="translate(-450.54 -919.548)" fill="url(#linear-gradient)"/>
      <path id="Path_4389" data-name="Path 4389" d="M458.349,925.28v38.542c-.291-.155-.577-.315-.862-.482V925.28Z" transform="translate(-445.809 -919.548)" fill="url(#linear-gradient)"/>
      <path id="Path_4390" data-name="Path 4390" d="M452.143,925.28v37.7c-.238-.155-.476-.309-.714-.47-.048-.036-.1-.065-.149-.107V925.28Z" transform="translate(-441.078 -919.548)" fill="url(#linear-gradient)"/>
    </g>
    <g id="Group_1520" data-name="Group 1520" transform="translate(374.377 903.314)">
      <g id="Group_1519" data-name="Group 1519" transform="translate(0 17.939)">
        <path id="Path_4391" data-name="Path 4391" d="M1072.489,985.731v4.16a21.682,21.682,0,0,1-43.072,3.561,21.2,21.2,0,0,1-.283-2.862c-.005-.233-.011-.466-.011-.7h8.321a13.367,13.367,0,0,0,25.676,5.2c.144-.338.272-.688.388-1.043h-13.235v-8.321Z" transform="translate(-1029.123 -985.731)" fill="url(#linear-gradient)"/>
      </g>
      <path id="Path_4392" data-name="Path 4392" d="M1118.667,910.236v35.872h-.532V910.27Z" transform="translate(-1096.984 -910.236)" fill="url(#linear-gradient)"/>
      <path id="Path_4393" data-name="Path 4393" d="M1111.809,910.844v35.728h-.538V910.911Z" transform="translate(-1091.751 -910.7)" fill="url(#linear-gradient)"/>
      <path id="Path_4394" data-name="Path 4394" d="M1104.969,911.824v35.495h-.538V911.913C1104.614,911.879,1104.792,911.852,1104.969,911.824Z" transform="translate(-1086.537 -911.447)" fill="url(#linear-gradient)"/>
      <path id="Path_4395" data-name="Path 4395" d="M1098.129,913.107V948.3h-.538V913.229C1097.774,913.19,1097.952,913.146,1098.129,913.107Z" transform="translate(-1081.322 -912.425)" fill="url(#linear-gradient)"/>
      <path id="Path_4396" data-name="Path 4396" d="M1091.29,914.789v34.79h-.538V914.944C1090.935,914.889,1091.112,914.839,1091.29,914.789Z" transform="translate(-1076.108 -913.707)" fill="url(#linear-gradient)"/>
      <path id="Path_4397" data-name="Path 4397" d="M1084.45,916.843v34.3h-.538V917.032C1084.089,916.965,1084.272,916.9,1084.45,916.843Z" transform="translate(-1070.893 -915.273)" fill="url(#linear-gradient)"/>
      <path id="Path_4398" data-name="Path 4398" d="M1077.6,919.388v33.7h-.532V919.61C1077.25,919.526,1077.427,919.454,1077.6,919.388Z" transform="translate(-1065.679 -917.213)" fill="url(#linear-gradient)"/>
      <path id="Path_4399" data-name="Path 4399" d="M1070.765,922.422V955.4h-.532v-32.71Z" transform="translate(-1060.464 -919.526)" fill="url(#linear-gradient)"/>
      <path id="Path_4400" data-name="Path 4400" d="M1063.925,926.133v32.095h-.533V926.46C1063.57,926.344,1063.747,926.233,1063.925,926.133Z" transform="translate(-1055.249 -922.356)" fill="url(#linear-gradient)"/>
      <path id="Path_4401" data-name="Path 4401" d="M1057.085,930.615v31.03h-.25V951.433h-.283V931.026C1056.725,930.887,1056.908,930.748,1057.085,930.615Z" transform="translate(-1050.035 -925.773)" fill="url(#linear-gradient)"/>
      <path id="Path_4402" data-name="Path 4402" d="M1050.245,936.264v19.475h-.532V936.775C1049.891,936.6,1050.062,936.431,1050.245,936.264Z" transform="translate(-1044.821 -930.079)" fill="url(#linear-gradient)"/>
      <path id="Path_4403" data-name="Path 4403" d="M1043.387,943.548v17.745h-.538V944.241C1043.021,944,1043.2,943.77,1043.387,943.548Z" transform="translate(-1039.588 -935.633)" fill="url(#linear-gradient)"/>
      <path id="Path_4404" data-name="Path 4404" d="M1036.548,953.633v15.348h-.538V954.7C1036.176,954.332,1036.354,953.977,1036.548,953.633Z" transform="translate(-1034.374 -943.321)" fill="url(#linear-gradient)"/>
      <path id="Path_4405" data-name="Path 4405" d="M1029.708,971.188v11.177h-.255a21.179,21.179,0,0,1-.283-2.862v-4.975A20.182,20.182,0,0,1,1029.708,971.188Z" transform="translate(-1029.159 -956.705)" fill="url(#linear-gradient)"/>
      <rect id="Rectangle_382" data-name="Rectangle 382" width="0.536" height="16.87" transform="translate(22.812 19.002)" fill="url(#linear-gradient)"/>
      <rect id="Rectangle_383" data-name="Rectangle 383" width="0.536" height="16.87" transform="translate(24.476 19.002)" fill="url(#linear-gradient)"/>
      <rect id="Rectangle_384" data-name="Rectangle 384" width="0.536" height="16.87" transform="translate(26.14 19.002)" fill="url(#linear-gradient)"/>
      <rect id="Rectangle_385" data-name="Rectangle 385" width="0.536" height="16.87" transform="translate(27.804 19.002)" fill="url(#linear-gradient)"/>
      <rect id="Rectangle_386" data-name="Rectangle 386" width="0.536" height="16.87" transform="translate(29.468 19.002)" fill="url(#linear-gradient)"/>
      <rect id="Rectangle_387" data-name="Rectangle 387" width="0.536" height="16.87" transform="translate(31.132 19.002)" fill="url(#linear-gradient)"/>
    </g>
    <rect id="Rectangle_388" data-name="Rectangle 388" width="9.207" height="44.336" transform="translate(316.485 902.76)" fill="url(#linear-gradient)"/>
    <rect id="Rectangle_389" data-name="Rectangle 389" width="9.207" height="44.336" transform="translate(555.397 902.76)" fill="url(#linear-gradient)"/>
  </g>
</svg>
