<svg xmlns="http://www.w3.org/2000/svg" width="17.091" height="17.087" viewBox="0 0 17.091 17.087">
  <path id="Icon_awesome-instagram-selected" data-name="Icon awesome-instagram-selected" d="M8.542,6.4a4.381,4.381,0,1,0,4.381,4.381A4.374,4.374,0,0,0,8.542,6.4Zm0,7.229a2.848,2.848,0,1,1,2.848-2.848A2.853,2.853,0,0,1,8.542,13.63Zm5.582-7.408A1.022,1.022,0,1,1,13.1,5.2,1.019,1.019,0,0,1,14.124,6.221Zm2.9,1.037a5.057,5.057,0,0,0-1.38-3.58,5.09,5.09,0,0,0-3.58-1.38c-1.411-.08-5.639-.08-7.05,0a5.083,5.083,0,0,0-3.58,1.376,5.073,5.073,0,0,0-1.38,3.58c-.08,1.411-.08,5.639,0,7.05a5.057,5.057,0,0,0,1.38,3.58,5.1,5.1,0,0,0,3.58,1.38c1.411.08,5.639.08,7.05,0a5.057,5.057,0,0,0,3.58-1.38,5.09,5.09,0,0,0,1.38-3.58c.08-1.411.08-5.635,0-7.046ZM15.2,15.818a2.884,2.884,0,0,1-1.624,1.624c-1.125.446-3.794.343-5.037.343s-3.916.1-5.037-.343a2.884,2.884,0,0,1-1.624-1.624c-.446-1.125-.343-3.794-.343-5.037s-.1-3.916.343-5.037A2.884,2.884,0,0,1,3.505,4.12C4.63,3.674,7.3,3.777,8.542,3.777s3.916-.1,5.037.343A2.884,2.884,0,0,1,15.2,5.745c.446,1.125.343,3.794.343,5.037S15.649,14.7,15.2,15.818Z" transform="translate(0.005 -2.238)" fill="#fff"/>
</svg>
