<svg xmlns="http://www.w3.org/2000/svg" width="102.421" height="67.542" viewBox="0 0 102.421 67.542">
  <g id="intel" transform="translate(0 0)">
    <path id="Path_4516" data-name="Path 4516" d="M48.651,60.209C28.413,62.076,7.318,59.135,4.363,43.319c-1.445-7.8,2.111-16.065,6.823-21.2V19.37C2.7,26.815-1.9,36.234.748,47.361c3.385,14.272,21.484,22.354,49.118,19.67C60.8,65.971,75.11,62.454,85.061,56.988v-7.76c-9.032,5.381-23.967,9.827-36.41,10.981Zm53.316-41.024c-4.8-23.438-50.308-24.924-79.643-7.067V14.09C51.625-.974,93.188-.882,96.972,20.708c1.27,7.142-2.753,14.583-9.941,18.867v5.6c8.646-3.171,17.514-13.428,14.936-25.992Z" transform="translate(0 0)" fill="#d6d6d6"/>
    <path id="Path_4517" data-name="Path 4517" d="M151.484,87.712h-5.306v23.634c0,2.77,1.339,5.178,5.306,5.563ZM88.3,96.341H82.984l0,15.441c0,2.779,1.343,5.186,5.319,5.563Zm-5.316-7.91h5.3v5.03h-5.3Zm37.1,28.67c-4.3,0-6.113-2.985-6.113-5.926v-20.5h5.26v5.668h3.962v4.249h-3.962v10.26a1.633,1.633,0,0,0,1.82,1.867h2.142V117.1h-3.109m9.679-8.735a4.37,4.37,0,0,0,4.662,4.67,5.943,5.943,0,0,0,4.831-1.978l3.25,3.1a10.391,10.391,0,0,1-8.121,3.31c-5.034,0-9.857-2.747-9.857-10.757,0-6.848,4.215-10.718,9.741-10.718,5.618,0,8.846,4.531,8.846,10.48v1.9H129.759m4.276-8.027a4.039,4.039,0,0,0-3.77,2.178,5.437,5.437,0,0,0-.506,2.262h8.107C137.763,102.518,136.738,100.34,134.035,100.34Zm-31.448.25c1.542,0,2.184.763,2.184,2v14.541h5.261V102.56c0-2.953-1.573-6.213-6.193-6.213L92.97,96.341v20.79h5.263V100.59h4.353Zm54.607-8.655a2.112,2.112,0,1,1,2.12-2.112A2.1,2.1,0,0,1,157.194,91.935Zm0-3.871a1.755,1.755,0,1,0,1.764,1.759A1.774,1.774,0,0,0,157.194,88.064Zm.936,3.025h-.395a.089.089,0,0,1-.08-.053l-.534-.907a.159.159,0,0,0-.075-.042H156.8v.9a.093.093,0,0,1-.089.1h-.356a.1.1,0,0,1-.089-.1V88.711c0-.133.044-.188.161-.2s.461-.031.648-.031c.658,0,1.045.194,1.045.8v.045a.64.64,0,0,1-.475.674l.556.946a.17.17,0,0,1,.014.067.076.076,0,0,1-.087.078Zm-.511-1.809c0-.255-.158-.335-.5-.335h-.336v.724c.053,0,.292.011.336.011.339,0,.5-.113.5-.355Z" transform="translate(-68.059 -71.94)" fill="#d6d6d6"/>
  </g>
</svg>
