<svg xmlns="http://www.w3.org/2000/svg" width="1056.518" height="1077.431" viewBox="0 0 1056.518 1077.431">
  <path id="layer-1" d="M1056.276,404.891c-2.238-59.42-10.934-119.783-37.381-173.041s-72.753-98.889-130.369-113.59C802.442,96.294,715.8,145.121,640.333,192L134.28,506.379c-27.936,17.355-56.229,35-78.662,59.05C10.293,614.023-6.071,685.051,2.529,750.945S42.4,878.027,81.8,931.537c112.276,152.479,334.562,281.659,530.589,255.3,85.186-11.459,177.059-117.7,230.433-180.433A908.833,908.833,0,0,0,999.251,742.041C1040.147,634.853,1060.6,519.658,1056.276,404.891Z" transform="translate(-0.327 -112.837)" fill="#fffbfb"/>
</svg>
