<svg xmlns="http://www.w3.org/2000/svg" xmlns:xlink="http://www.w3.org/1999/xlink" width="203.865" height="24.287" viewBox="0 0 203.865 24.287">
  <defs>
    <linearGradient id="linear-gradient" x1="1" x2="0.5" y2="1" gradientUnits="objectBoundingBox">
      <stop offset="0" stop-color="#28d4e8"/>
      <stop offset="1" stop-color="#a258e4"/>
      <stop offset="1" stop-color="#b644e3"/>
    </linearGradient>
  </defs>
  <g id="Group_1521" data-name="Group 1521" transform="translate(-170.31 -901.157)">
    <g id="Group_1515" data-name="Group 1515" transform="translate(170.31 901.986)">
      <g id="Group_1514" data-name="Group 1514" transform="translate(0 0)">
        <path id="Path_4378" data-name="Path 4378" d="M170.646,907.905h4.105a.309.309,0,0,1,.287.176v12.3q0,.191.032.511a.314.314,0,0,0-.032.144l.032.255q-.032.192-.032.224l.032.176-.032.256q0,.032.032.224c-.021.128-.032.2-.032.223s.011.1.032.224q-.032.192-.032.208a2.3,2.3,0,0,1,.032.335h-4.76V908.193Q170.31,907.905,170.646,907.905Zm-.336,15.511h4.76v.224h-4.76Zm0,.447h4.76v.224h-4.76Zm0,.431h4.76v.224h-4.76Zm0,.447h4.76v.224h-4.76Zm0,.479h4.76v.208h-4.76Zm0,.431h4.76v.224h-4.76Zm0,.447h4.76v.224h-4.76Zm0,.479h4.76v.208h-4.76Zm0,.431h4.76v.224h-4.76Zm0,.447h4.76v.224h-4.76Zm0,.431h4.76v.224h-4.76Zm0,.479h4.76v.224h-4.76Zm0,.447h4.76v.208h-4.76Zm0,.431h4.76v.224h-4.76Zm0,.447h4.76v.224h-4.76Zm0,.479h4.76v.208h-4.76Zm0,.431h4.76v.224h-4.76Z" transform="translate(-170.31 -907.905)" fill="url(#linear-gradient)"/>
        <path id="Path_4379" data-name="Path 4379" d="M785.821,907.905h4.105a.309.309,0,0,1,.288.176v12.3q0,.191.032.511a.313.313,0,0,0-.032.144l.032.255c-.022.128-.032.2-.032.224l.032.176-.032.256c0,.021.01.1.032.224-.022.128-.032.2-.032.223s.01.1.032.224c-.022.128-.032.2-.032.208a2.321,2.321,0,0,1,.032.335h-4.76V908.193Q785.485,907.905,785.821,907.905Zm-.336,15.511h4.76v.224h-4.76Zm0,.447h4.76v.224h-4.76Zm0,.431h4.76v.224h-4.76Zm0,.447h4.76v.224h-4.76Zm0,.479h4.76v.208h-4.76Zm0,.431h4.76v.224h-4.76Zm0,.447h4.76v.224h-4.76Zm0,.479h4.76v.208h-4.76Zm0,.431h4.76v.224h-4.76Zm0,.447h4.76v.224h-4.76Zm0,.431h4.76v.224h-4.76Zm0,.479h4.76v.224h-4.76Zm0,.447h4.76v.208h-4.76Zm0,.431h4.76v.224h-4.76Zm0,.447h4.76v.224h-4.76Zm0,.479h4.76v.208h-4.76Zm0,.431h4.76v.224h-4.76Z" transform="translate(-709.907 -907.905)" fill="url(#linear-gradient)"/>
      </g>
    </g>
    <g id="Group_1516" data-name="Group 1516" transform="translate(319.711 901.986)">
      <path id="Path_4380" data-name="Path 4380" d="M1386.376,931.108h5.53l6.492-12.623,6.251,12.623h5.651l-11.962-23.2Z" transform="translate(-1386.376 -907.905)" fill="url(#linear-gradient)"/>
      <line id="Line_6" data-name="Line 6" x2="9.718" transform="translate(7.394 11.381)" fill="#f1f2f2"/>
      <line id="Line_7" data-name="Line 7" x2="9.718" transform="translate(7.394 12.102)" fill="#f1f2f2"/>
      <line id="Line_8" data-name="Line 8" x2="9.718" transform="translate(7.394 12.824)" fill="#f1f2f2"/>
      <line id="Line_9" data-name="Line 9" x2="9.718" transform="translate(7.394 13.545)" fill="#f1f2f2"/>
      <line id="Line_10" data-name="Line 10" x2="9.718" transform="translate(7.394 14.267)" fill="#f1f2f2"/>
      <line id="Line_11" data-name="Line 11" x2="9.718" transform="translate(7.394 14.988)" fill="#f1f2f2"/>
      <line id="Line_12" data-name="Line 12" x2="9.718" transform="translate(7.394 15.709)" fill="#f1f2f2"/>
      <line id="Line_13" data-name="Line 13" x2="9.718" transform="translate(7.394 16.431)" fill="#f1f2f2"/>
      <line id="Line_14" data-name="Line 14" x2="9.718" transform="translate(7.394 17.152)" fill="#f1f2f2"/>
      <line id="Line_15" data-name="Line 15" x2="9.718" transform="translate(7.394 17.873)" fill="#f1f2f2"/>
      <line id="Line_16" data-name="Line 16" x2="9.718" transform="translate(7.394 18.595)" fill="#f1f2f2"/>
      <line id="Line_17" data-name="Line 17" x2="9.718" transform="translate(7.394 19.316)" fill="#f1f2f2"/>
    </g>
    <g id="Group_1518" data-name="Group 1518" transform="translate(199.553 901.157)">
      <g id="Group_1517" data-name="Group 1517" transform="translate(0 0)">
        <path id="Path_4381" data-name="Path 4381" d="M429.233,904.88l-3.329,3.194a7.507,7.507,0,0,0-4.974-2.294c-.148-.009-.3-.012-.446-.012-.108,0-.212,0-.317.006-.151.006-.3.019-.446.034-.108.009-.212.021-.317.037-.151.021-.3.046-.446.08a2.8,2.8,0,0,0-.32.074c-.151.034-.3.077-.443.123-.108.034-.215.071-.32.111-.151.055-.3.117-.446.181-.108.046-.212.1-.317.154-.151.071-.3.151-.446.237-.108.065-.212.129-.317.2-.025.015-.052.031-.077.049-.126.086-.249.172-.369.268s-.215.169-.32.258c-.154.132-.3.271-.446.415-.108.108-.212.221-.317.338a6.622,6.622,0,0,0-.446.563c-.111.154-.218.31-.317.474a7.082,7.082,0,0,0-.446.842c-.025.052-.049.1-.071.16a7.529,7.529,0,0,0,.516,6.868c.055.092.114.184.175.274.046.068.092.135.141.2.141.19.289.375.446.553.1.117.206.231.317.338.141.145.292.283.446.415.1.092.212.178.32.261.145.111.3.218.446.32.1.068.209.132.317.194.144.086.3.169.446.243.1.052.209.1.317.148.04.021.083.037.123.055q.161.069.323.129c.1.037.212.074.32.108.144.046.292.089.443.126.1.028.212.052.32.074.148.031.3.055.446.077.1.015.209.028.317.037.148.018.3.028.446.034.1,0,.212.006.317.006v4.611c-.1,0-.212,0-.317-.006-.151,0-.3-.009-.446-.018-.108-.006-.212-.012-.317-.025-.151-.009-.3-.027-.446-.046-.108-.012-.215-.028-.32-.043-.148-.021-.3-.049-.443-.077-.108-.018-.212-.043-.32-.068-.151-.031-.3-.065-.446-.1-.108-.028-.212-.055-.317-.089-.151-.04-.3-.086-.446-.138-.108-.034-.212-.068-.317-.108-.151-.052-.3-.111-.446-.172-.108-.043-.215-.086-.32-.135-.151-.064-.3-.135-.446-.206-.1-.052-.212-.1-.317-.16-.151-.08-.3-.163-.446-.249-.108-.062-.212-.126-.317-.187-.123-.08-.246-.16-.369-.243-.025-.018-.052-.034-.077-.055a12.143,12.143,0,1,1,15.617-18.433Z" transform="translate(-408.34 -901.157)" fill="url(#linear-gradient)"/>
      </g>
      <rect id="Rectangle_381" data-name="Rectangle 381" width="0.445" height="21.323" transform="translate(12.145 2.964)" fill="url(#linear-gradient)"/>
      <path id="Path_4382" data-name="Path 4382" d="M501.424,925.28V946.6c-.151,0-.3-.009-.446-.018v-21.3Z" transform="translate(-489.597 -922.316)" fill="url(#linear-gradient)"/>
      <path id="Path_4383" data-name="Path 4383" d="M495.218,925.28v21.274c-.151-.009-.3-.028-.446-.046V925.28Z" transform="translate(-484.153 -922.316)" fill="url(#linear-gradient)"/>
      <path id="Path_4384" data-name="Path 4384" d="M489.009,925.28v21.185c-.148-.021-.3-.049-.443-.077V925.28Z" transform="translate(-478.71 -922.316)" fill="url(#linear-gradient)"/>
      <path id="Path_4385" data-name="Path 4385" d="M482.781,925.28v21.041c-.151-.031-.3-.065-.446-.1V925.28Z" transform="translate(-473.244 -922.316)" fill="url(#linear-gradient)"/>
      <path id="Path_4386" data-name="Path 4386" d="M476.576,925.28v20.847c-.151-.04-.3-.086-.446-.138V925.28Z" transform="translate(-467.802 -922.316)" fill="url(#linear-gradient)"/>
      <path id="Path_4387" data-name="Path 4387" d="M470.37,925.28v20.6c-.151-.052-.3-.111-.446-.172V925.28Z" transform="translate(-462.358 -922.316)" fill="url(#linear-gradient)"/>
      <path id="Path_4388" data-name="Path 4388" d="M464.139,925.28v20.293c-.151-.065-.3-.135-.446-.206V925.28Z" transform="translate(-456.893 -922.316)" fill="url(#linear-gradient)"/>
      <path id="Path_4389" data-name="Path 4389" d="M457.933,925.28v19.927c-.151-.08-.3-.163-.446-.249V925.28Z" transform="translate(-451.449 -922.316)" fill="url(#linear-gradient)"/>
      <path id="Path_4390" data-name="Path 4390" d="M451.727,925.28v19.491c-.123-.08-.246-.16-.369-.243-.025-.018-.052-.034-.077-.055V925.28Z" transform="translate(-446.005 -922.316)" fill="url(#linear-gradient)"/>
    </g>
    <g id="Group_1520" data-name="Group 1520" transform="translate(275.82 902.272)">
      <g id="Group_1519" data-name="Group 1519" transform="translate(0 9.275)">
        <path id="Path_4391" data-name="Path 4391" d="M1051.545,985.731v2.151a11.211,11.211,0,0,1-22.27,1.841,10.965,10.965,0,0,1-.146-1.48c0-.12-.006-.241-.006-.361h4.3a6.911,6.911,0,0,0,13.276,2.69c.075-.175.141-.356.2-.539h-6.843v-4.3Z" transform="translate(-1029.123 -985.731)" fill="url(#linear-gradient)"/>
      </g>
      <path id="Path_4392" data-name="Path 4392" d="M1118.41,910.236v18.547h-.275v-18.53Z" transform="translate(-1107.199 -910.236)" fill="url(#linear-gradient)"/>
      <path id="Path_4393" data-name="Path 4393" d="M1111.549,910.844v18.473h-.278V910.878Z" transform="translate(-1101.179 -910.769)" fill="url(#linear-gradient)"/>
      <path id="Path_4394" data-name="Path 4394" d="M1104.709,911.824v18.352h-.278V911.87C1104.526,911.853,1104.618,911.838,1104.709,911.824Z" transform="translate(-1095.179 -911.629)" fill="url(#linear-gradient)"/>
      <path id="Path_4395" data-name="Path 4395" d="M1097.869,913.107V931.3h-.278V913.17C1097.686,913.15,1097.777,913.127,1097.869,913.107Z" transform="translate(-1089.179 -912.754)" fill="url(#linear-gradient)"/>
      <path id="Path_4396" data-name="Path 4396" d="M1091.03,914.789v17.988h-.278V914.869C1090.847,914.841,1090.938,914.815,1091.03,914.789Z" transform="translate(-1083.181 -914.23)" fill="url(#linear-gradient)"/>
      <path id="Path_4397" data-name="Path 4397" d="M1084.19,916.843v17.736h-.278V916.941C1084,916.906,1084.1,916.874,1084.19,916.843Z" transform="translate(-1077.181 -916.031)" fill="url(#linear-gradient)"/>
      <path id="Path_4398" data-name="Path 4398" d="M1077.347,919.388v17.423h-.275V919.5C1077.164,919.46,1077.256,919.422,1077.347,919.388Z" transform="translate(-1071.181 -918.264)" fill="url(#linear-gradient)"/>
      <path id="Path_4399" data-name="Path 4399" d="M1070.507,922.422v17.05h-.275V922.56Z" transform="translate(-1065.182 -920.925)" fill="url(#linear-gradient)"/>
      <path id="Path_4400" data-name="Path 4400" d="M1063.667,926.133v16.594h-.275V926.3C1063.484,926.242,1063.576,926.185,1063.667,926.133Z" transform="translate(-1059.182 -924.18)" fill="url(#linear-gradient)"/>
      <path id="Path_4401" data-name="Path 4401" d="M1056.828,930.615v16.044h-.129v-5.28h-.146V930.827C1056.642,930.756,1056.736,930.684,1056.828,930.615Z" transform="translate(-1053.183 -928.111)" fill="url(#linear-gradient)"/>
      <path id="Path_4402" data-name="Path 4402" d="M1049.988,936.264v10.07h-.275v-9.805C1049.8,936.436,1049.894,936.35,1049.988,936.264Z" transform="translate(-1047.183 -933.066)" fill="url(#linear-gradient)"/>
      <path id="Path_4403" data-name="Path 4403" d="M1043.127,943.548v9.175h-.278v-8.816C1042.938,943.783,1043.03,943.663,1043.127,943.548Z" transform="translate(-1041.163 -939.455)" fill="url(#linear-gradient)"/>
      <path id="Path_4404" data-name="Path 4404" d="M1036.288,953.633v7.936h-.278v-7.385C1036.1,953.994,1036.188,953.811,1036.288,953.633Z" transform="translate(-1035.164 -948.302)" fill="url(#linear-gradient)"/>
      <path id="Path_4405" data-name="Path 4405" d="M1029.448,971.188v5.779h-.132a10.945,10.945,0,0,1-.146-1.48v-2.572A10.438,10.438,0,0,1,1029.448,971.188Z" transform="translate(-1029.164 -963.7)" fill="url(#linear-gradient)"/>
      <rect id="Rectangle_382" data-name="Rectangle 382" width="0.277" height="8.722" transform="translate(11.795 9.825)" fill="url(#linear-gradient)"/>
      <rect id="Rectangle_383" data-name="Rectangle 383" width="0.277" height="8.722" transform="translate(12.655 9.825)" fill="url(#linear-gradient)"/>
      <rect id="Rectangle_384" data-name="Rectangle 384" width="0.277" height="8.722" transform="translate(13.515 9.825)" fill="url(#linear-gradient)"/>
      <rect id="Rectangle_385" data-name="Rectangle 385" width="0.277" height="8.722" transform="translate(14.376 9.825)" fill="url(#linear-gradient)"/>
      <rect id="Rectangle_386" data-name="Rectangle 386" width="0.277" height="8.722" transform="translate(15.236 9.825)" fill="url(#linear-gradient)"/>
      <rect id="Rectangle_387" data-name="Rectangle 387" width="0.277" height="8.722" transform="translate(16.097 9.825)" fill="url(#linear-gradient)"/>
    </g>
    <rect id="Rectangle_388" data-name="Rectangle 388" width="4.76" height="22.923" transform="translate(245.888 901.986)" fill="url(#linear-gradient)"/>
    <rect id="Rectangle_389" data-name="Rectangle 389" width="4.76" height="22.923" transform="translate(369.415 901.986)" fill="url(#linear-gradient)"/>
  </g>
</svg>
