<svg id="strategy-icon" xmlns="http://www.w3.org/2000/svg" xmlns:xlink="http://www.w3.org/1999/xlink" width="30.481" height="30.481" viewBox="0 0 30.481 30.481">
  <defs>
    <linearGradient id="linear-gradient" x1="1.431" x2="0.5" y2="1" gradientUnits="objectBoundingBox">
      <stop offset="0" stop-color="#29d4e8"/>
      <stop offset="1" stop-color="#bb3fe3"/>
    </linearGradient>
  </defs>
  <path id="Path_1252" data-name="Path 1252" d="M2.1,44.4,3.45,46.2,2.041,49.484a.508.508,0,0,0,.711.645l10.16-5.588a.508.508,0,0,0,0-.89L2.753,38.063a.508.508,0,0,0-.711.645L3.45,41.994,2.1,43.791a.508.508,0,0,0,0,.61Zm2.3,2.163,4.769-1.122L3.556,48.528ZM9.167,42.75,4.4,41.628l-.842-1.964Zm-4.928-.115L10.45,44.1,4.239,45.558,3.143,44.1Z" transform="translate(-2 -19.711)" fill="url(#linear-gradient)"/>
  <path id="Path_1253" data-name="Path 1253" d="M28.289,2a8.132,8.132,0,0,0-8.1,7.62H18.847L17.471,8.245l-.718.718.657.657H15.334a5.334,5.334,0,0,0,0,10.668h5.632l1.375,1.375.718-.718-.657-.657h9.7a2.794,2.794,0,1,1,0,5.588H27.483L26.108,24.5l-.718.718.657.657H18.128v1.016h7.918l-.657.657.718.718,1.375-1.375H32.1a3.81,3.81,0,1,0,0-7.62H22.4l.657-.657-.718-.718-1.375,1.375H15.334a4.318,4.318,0,1,1,0-8.636H17.41l-.657.657.718.718,1.375-1.375h1.339A8.123,8.123,0,1,0,28.289,2Zm0,15.24a7.116,7.116,0,0,1-7.086-6.6h1.524a5.588,5.588,0,1,0,0-1.016H21.2a7.109,7.109,0,1,1,7.086,7.62Zm-1.165-5.229,1.524-1.524a.508.508,0,0,0,0-.718L27.124,8.245l-.718.718.657.657H23.746a4.572,4.572,0,1,1,0,1.016h3.316l-.657.657Z" transform="translate(-5.936 -2)" fill="url(#linear-gradient)"/>
  <path id="Path_1254" data-name="Path 1254" d="M49.048,15.048A3.051,3.051,0,0,0,46,12v1.016a2.032,2.032,0,1,1,0,4.064V18.1A3.051,3.051,0,0,0,49.048,15.048Z" transform="translate(-23.647 -6.92)" fill="url(#linear-gradient)"/>
</svg>
