<svg xmlns="http://www.w3.org/2000/svg" width="288.734" height="51.54" viewBox="0 0 288.734 51.54">
  <g id="windows-10" transform="translate(0 -0.04)">
    <path id="Path_4515" data-name="Path 4515" d="M23.55,4.085Q37.46,1.956,51.4.04q.009,12.214.006,24.422c-9.285.035-18.569.177-27.86.206Q23.542,14.37,23.55,4.085ZM0,7.37C6.983,6.293,14,5.362,21.007,4.485q.009,10.13.012,20.253c-7.006-.006-14.013.1-21.019.082ZM110.934,8.506c1.837-1.172,4.186,1.272,3.115,3.109a2.242,2.242,0,0,1-3.485.871A2.389,2.389,0,0,1,110.934,8.506Zm48.107-.241q1.766-.009,3.533-.006V41.23h-3.52c.006-1.2-.018-2.391-.1-3.586-2.549,4.58-9.367,5.593-13.265,2.2-2.784-2.4-3.633-6.294-3.485-9.821.029-3.58,1.207-7.383,4.057-9.72,3.7-3.05,10.268-2.873,12.805,1.607-.048-4.551-.006-9.1-.024-13.641M151.435,21.3c-2.826.447-4.74,3.026-5.269,5.693-.7,3.215-.572,6.935,1.454,9.667a6.232,6.232,0,0,0,9.367.224,8.941,8.941,0,0,0,2.061-6.264c.017-2.349.218-5-1.342-6.959A6.207,6.207,0,0,0,151.435,21.3ZM263.376,9.525c.311-.041.936-.13,1.242-.171q.027,15.932.006,31.875h-3.485c.023-8.843-.059-17.692.041-26.535a24.37,24.37,0,0,1-7.224,3.58q.026-1.766.041-3.533a33.111,33.111,0,0,0,9.38-5.216ZM277.5,9.513a8.465,8.465,0,0,1,8.279,3.209c2.585,3.65,2.826,8.331,2.956,12.647-.088,4.557-.589,9.5-3.5,13.212a8.8,8.8,0,0,1-11.758,1.755c-2.914-2.1-4.057-5.77-4.575-9.167-.589-5.046-.536-10.339,1.219-15.155,1.106-3.268,3.838-6.082,7.377-6.5m-.542,3.162c-3.138,1.272-4.038,4.981-4.475,8a36.962,36.962,0,0,0,.436,12.675c.5,2.038,1.554,4.2,3.573,5.093a5.085,5.085,0,0,0,6.559-2.1c1.925-3.326,1.972-7.318,2-11.056-.077-3.644-.224-7.566-2.237-10.733A4.875,4.875,0,0,0,276.958,12.675ZM67.089,10.019c1.325.006,2.649.006,3.98.024,2.067,7.465,4.1,14.943,6.176,22.413a31.345,31.345,0,0,1,.966,4.793c2.155-9.167,5.1-18.14,7.571-27.23,1.148.006,2.3.006,3.445.012,1.819,6.47,3.52,12.97,5.322,19.447a52.7,52.7,0,0,1,1.8,7.789c1.949-9.155,4.727-18.128,6.935-27.224,1.307-.018,2.614-.018,3.921-.018-2.85,10.415-5.817,20.8-8.7,31.2H94.254c-2.09-7.471-4.162-14.949-6.276-22.408a19.134,19.134,0,0,1-.612-3.7,31.146,31.146,0,0,1-.6,3.221c-2.137,7.607-4.3,15.2-6.382,22.82-1.412.077-2.826.082-4.239.071q-4.548-15.6-9.061-31.21Zm56,12.44a8.462,8.462,0,0,1,10.527-3.586c3.02,1.178,4.145,4.674,4.239,7.654.164,4.9.029,9.8.071,14.7q-1.766,0-3.533-.006c-.054-4.7.124-9.42-.083-14.124-.094-2.331-1.083-5.134-3.62-5.729-3.7-1.119-7.4,2.22-7.519,5.882-.106,4.657-.006,9.32-.041,13.977h-3.533q.01-11.189,0-22.373h3.539c-.006,1.2-.012,2.4-.047,3.6Zm53.23-4.157c3.15-.277,6.641.218,9.008,2.5,2.673,2.467,3.468,6.3,3.321,9.8a12.028,12.028,0,0,1-3.515,8.543c-4.816,4.38-13.759,3.421-16.816-2.6-2.4-5.046-1.919-12.028,2.467-15.861a12.6,12.6,0,0,1,5.535-2.379m-.636,3.2c-5.188,1.6-6.065,8.372-4.446,12.829,1.289,3.956,6.317,5.711,9.926,3.862,2.443-1.125,3.556-3.88,3.792-6.406.264-2.95.029-6.293-2.055-8.6a7.051,7.051,0,0,0-7.218-1.69Zm54.207-3.215a15.06,15.06,0,0,1,6.536.871c.576,1.1.13,2.532.265,3.762-2.479-1.548-5.894-2.538-8.584-.96a3.032,3.032,0,0,0-.135,5.063c2.573,1.666,5.84,2.1,8.125,4.245a5.9,5.9,0,0,1-1.042,8.908c-3.586,2.284-8.307,2.061-12.064.318,0-1.319-.006-2.637-.029-3.956,2.673,2.037,6.429,3.168,9.626,1.719a3.047,3.047,0,0,0,.318-5.01c-2.573-1.9-6.1-2.2-8.384-4.563a5.821,5.821,0,0,1,.666-8.378c1.3-1.2,3.06-1.554,4.7-2.019Zm-119.712.571q1.766-.009,3.533-.006V41.23h-3.533Q110.174,30.04,110.174,18.863Zm79.942-.006H193.8c1.46,5.328,2.874,10.668,4.363,15.991a16.426,16.426,0,0,1,.518,3.073c1.666-6.417,3.774-12.717,5.664-19.07l3.221.018c1.619,6.359,3.633,12.623,4.974,19.046,1.384-6.389,3.35-12.635,4.887-18.987,1.183-.059,2.367-.077,3.556-.088-2.243,7.46-4.392,14.943-6.646,22.39h-3.663c-1.59-6.064-3.65-12.011-4.94-18.14-1.537,6.123-3.668,12.081-5.422,18.14h-3.538c-2.214-7.46-4.475-14.9-6.659-22.373ZM0,26.946c7-.024,14,.088,21,.077,0,6.771.018,13.541.006,20.312C14.013,46.3,7.006,45.392,0,44.444Zm23.509.271H51.4q.018,12.178,0,24.363C42.132,50.19,32.841,48.9,23.55,47.642q-.018-10.21-.041-20.425Z" fill="#d6d6d6"/>
  </g>
</svg>
